<svg width="32" height="32" fill="none" xmlns="http://www.w3.org/2000/svg">
  <path
    d="M31.818 26.31c-.067-.043-.133-.066-.222-.043-1.664-2.467-3.794-4.8-5.835-7.067l-.333-.378a.17.17 0 0 0-.045-.111.463.463 0 0 0-.133-.089l-.066-.067-.045-.044c-.066-.133-.222-.222-.377-.133-.621.31-1.198.777-1.753 1.222-.732.578-1.464 1.155-2.152 1.8a6.715 6.715 0 0 0-.777.822c-.11.156-.022.289.111.356a93.39 93.39 0 0 0-1.464 1.489.252.252 0 0 0-.067.177c0 .067.044.134.089.156l.865.667v.022c1.22 1.222 3.373 2.889 5.658 4.689.333.266.688.533 1.021.8.155.177.31.377.444.555a.238.238 0 0 0 .31.045c.045.044.111.088.156.133.044.022.089.044.133.044a.202.202 0 0 0 .178-.088.316.316 0 0 0 .044-.134c.022 0 .022.022.044.022a.252.252 0 0 0 .178-.066l4.038-4.422a.248.248 0 0 0 0-.356Zm-11.627-1.532c.022.044.045.066.089.11.466.4.954.8 1.464 1.245l-2.041-1.555-.2-.134c-.044-.022-.088-.066-.133-.089l-.155-.133.044-.044.045-.045.088-.089a234.53 234.53 0 0 1 2.463-2.422c-.643.645-1.93 2.533-1.664 3.156Zm6.967 5.51L25.472 29a35.632 35.632 0 0 0-2.086-2c.91.689 1.687 1.289 1.798 1.4.887.778.843.644 1.442 1.155l.732.534a.846.846 0 0 1-.2.2Zm.444.334-.044-.022c.066-.045.133-.09.2-.156l-.156.178ZM.976 4.6c.044.29.11.578.155.845.266 1.466.533 2.8 1.02 3.8l.2.755c.067.29.178.645.289.734 1.132 1 2.862 2.489 4.726 3.91.089.067.2.067.289 0 0 0 0 .023.022.023a.201.201 0 0 0 .155.067.252.252 0 0 0 .178-.067c2.374-2.644 4.149-4.822 5.414-6.644.088-.09.11-.223.11-.334.09-.089.156-.2.245-.266.088-.09.088-.245 0-.312l-.022-.022c0-.044-.023-.11-.067-.133-.555-.533-.954-.911-1.376-1.311-.732-.69-1.486-1.4-3.084-3l-.022-.022c-.022-.023-.045-.045-.089-.045-.444-.155-1.353-.311-2.485-.511C4.948 1.778 2.662 1.378.599.756c0 0-.134 0-.156.022L.377.845C.355.867.332.889.199.934h.045-.045c.022.133.022.222.067.377 0 .045.089.4.089.445L.975 4.6ZM13.29 7.223l-.267-.267c.067.089.156.155.267.267Zm-2.818 3.733-.045.044c0-.022.022-.044.045-.044Zm-1.62-8c.133.133.688.667.82.778-.576-.267-2.018-.934-2.684-1.156.666.133 1.575.267 1.864.378Zm-7.61-1.111c.332.578.598 2.578.864 4.533-.155-.622-.266-1.244-.399-1.822-.2-1.022-.4-1.933-.666-2.733.045 0 .111 0 .2.022Zm-.134-.467c-.089 0-.178-.022-.244-.022 0-.022 0-.045-.022-.045.11 0 .177.023.266.067Zm-.865.178c0-.022 0-.022 0 0ZM31.463 1.067c.023-.089-.443-.489-.288-.511.333-.022.333-.534 0-.534-.444.023-.91.134-1.331.2-.777.156-1.576.312-2.352.49a104.59 104.59 0 0 0-5.215 1.244c-.532.155-1.131.266-1.642.533-.177.089-.155.267-.066.378-.045.022-.067.022-.111.044-.155.023-.289.045-.444.067-.133.022-.2.133-.177.267 0 .022.022.066.022.089a138.091 138.091 0 0 1-3.107 3.955c-1.11 1.289-2.285 2.645-3.461 4.045-3.75 4.4-7.988 9.4-12.67 13.8a.215.215 0 0 0 0 .31c.022.023.044.045.067.045-.067.067-.134.111-.2.178-.044.044-.067.089-.067.133-.022.023-.066.067-.088.111-.09.09-.09.245.022.311.089.09.244.09.31-.022.023-.022.023-.044.045-.044a.348.348 0 0 1 .488 0c.266.289.532.578.777.822l-.555-.467c-.089-.088-.244-.066-.31.023-.09.088-.067.244.021.31L7.034 31.8c.044.045.088.045.155.045.066 0 .11-.022.155-.067l.133-.133c.023.022.067.022.09.022.066 0 .11-.022.154-.067 7.988-8.044 14.423-14.11 21.79-19.533.066-.044.088-.133.088-.2.09 0 .156-.067.2-.156 1.354-4.155 1.62-7.844 1.709-9.666v-.023c0-.022.022-.044.022-.066.022-.045.022-.067.022-.067a1.309 1.309 0 0 0-.089-.822ZM17.173 7.6c.356-.4.71-.822 1.066-1.2-2.286 3.022-6.08 7.667-11.45 13.2 3.662-4.066 7.345-8.266 10.385-12ZM4.239 28.622h.066-.066Zm2.751 2.556c-.022-.022-.022-.022 0-.022v.022Zm3.306-2.867c.178-.2.355-.377.555-.577 0 0 0 .022.022.022-.2.178-.377.355-.577.555Zm.91-.889c.111-.11.222-.266.355-.4l.022-.022a346.331 346.331 0 0 1 4.039-4.089l.022-.022c.333-.267.732-.555 1.087-.822a301.53 301.53 0 0 0-5.525 5.355Zm8.61-22.244c-.733.956-1.554 2.222-2.242 3.222-2.174 3.156-9.164 10.867-9.319 11a1572.044 1572.044 0 0 1-6.39 6.111l-.134.134c-.11-.134-.11-.334.023-.445 9.874-9.31 15.865-17.066 18.283-20.466-.066.155-.11.288-.222.444Zm3.838 4.556c-.888-.512-1.31-1.312-1.065-2.09l.066-.266c.023-.067.067-.156.111-.222.244-.4.6-.734.999-.934.022 0 .044 0 .067-.022-.023-.044-.023-.11-.023-.178.023-.133.111-.222.267-.222.266 0 1.087.245 1.397.511.09.067.178.156.267.245.11.133.288.355.377.533.044.022.089.245.155.356.045.177.089.377.067.555-.022.022 0 .156-.022.156a2.143 2.143 0 0 1-.289.822c-.022.022-.022.044-.044.067l-.022.022a1.617 1.617 0 0 1-.422.444c-.51.356-1.087.467-1.664.311 0 0-.155-.066-.222-.088Zm6.48-.667c-.2.822-.422 1.667-.711 2.533 0 .023-.022.067 0 .09-.044 0-.067.021-.11.044-1.754 1.289-3.462 2.644-5.17 4.022 1.464-1.311 2.928-2.645 4.46-3.956.443-.4.753-.91.842-1.489l.222-1.333v-.044c.111-.267.533-.156.466.133Z"
    fill="#6965DB" />
</svg>